#!OML:ASF F:\twosubjects\two\Thursday\Session 1\justin.ASF
:FULLY-SPECIFIED
:DEGREES
244
root 7.12331 9.45972 -18.0843 -26.9086 1.53936 0.355618
lowerback 34.5052 2.78315 -3.64296
upperback 11.2341 2.41145 0.978002
thorax -5.26471 1.08882 2.11335
lowerneck -23.2168 -5.54758 -11.3174
upperneck 15.0056 -5.85773 9.64736
head 9.14602 -2.36123 4.33414
rclavicle 4.34344e-014 -1.97791e-014
rhumerus 29.1113 16.5163 -73.6557
rradius 78.9843
rwrist 7.46581
rhand -17.2639 6.88816
rfingers 7.12502
rthumb 8.98068 -22.9007
lclavicle 4.34344e-014 -1.97791e-014
lhumerus 35.793 -24.1014 71.5236
lradius 70.1732
lwrist -16.3069
lhand -7.14062 37.908
lfingers 7.12502
lthumb 18.7356 67.0257
rfemur -64.4192 -20.9504 2.44611
rtibia 100.125
rfoot -5.85866 -2.96535
rtoes -3.87351
lfemur -62.6303 18.2042 0.178818
ltibia 95.2651
lfoot -7.21889 -17.3251
ltoes -19.2529
245
root 7.12204 9.45551 -18.0911 -26.9464 1.46 0.233154
lowerback 34.6766 2.72283 -3.36933
upperback 11.3438 2.41389 0.911759
thorax -5.19638 1.09436 1.89675
lowerneck -23.5543 -5.58552 -11.266
upperneck 14.8706 -5.90841 9.78079
head 9.16608 -2.35809 4.36163
rclavicle -1.08089e-014 -3.08116e-015
rhumerus 29.4634 16.6641 -73.2588
rradius 78.6505
rwrist 7.49411
rhand -18.0371 6.87669
rfingers 7.12502
rthumb 8.23452 -22.9428
lclavicle -1.08089e-014 -3.08116e-015
lhumerus 36.1092 -24.2547 71.033
lradius 69.6251
lwrist -17.2264
lhand -7.26564 38.394
lfingers 7.12502
lthumb 18.6153 67.5232
rfemur -64.402 -20.7994 2.52532
rtibia 100.053
rfoot -5.79882 -2.94603
rtoes -2.78942
lfemur -62.5082 18.229 0.367466
ltibia 95.2034
lfoot -7.22056 -17.3123
ltoes -19.0181
246
root 7.12142 9.46131 -18.1076 -27.0248 1.3077 0.0133084
lowerback 34.8253 2.77783 -3.21475
upperback 11.4471 2.54476 1.11395
thorax -5.15047 1.15291 1.97924
lowerneck -23.7063 -5.65143 -11.3458
upperneck 14.7666 -5.93545 9.72493
head 9.15911 -2.37732 4.34785
rclavicle 1.92076e-014 2.83268e-015
rhumerus 29.5845 16.6157 -72.8772
rradius 78.2701
rwrist 8.29684
rhand -18.102 7.46985
rfingers 7.12502
rthumb 8.17185 -22.3521
lclavicle 1.92076e-014 2.83268e-015
lhumerus 36.2396 -24.3603 70.9749
lradius 68.9816
lwrist -18.3952
lhand -7.34389 38.3444
lfingers 7.12502
lthumb 18.5401 67.4808
rfemur -64.2844 -20.5912 2.77216
rtibia 99.9129
rfoot -5.74787 -3.0054
rtoes -1.32773
lfemur -62.4757 18.2741 0.664115
ltibia 95.1537
lfoot -7.05524 -17.3876
ltoes -18.7811
247
root 7.12134 9.4641 -18.1242 -27.0736 1.14029 -0.176895
lowerback 35.1163 2.72408 -2.82595
upperback 11.3753 2.59067 1.06408
thorax -5.31941 1.1854 1.69743
lowerneck -23.708 -5.64468 -11.3649
upperneck 14.8272 -5.96063 9.89575
head 9.19075 -2.37157 4.40931
rclavicle 1.27222e-014 1.69961e-014
rhumerus 29.4662 16.7082 -72.852
rradius 77.7974
rwrist 8.55442
rhand -18.5165 8.05751
rfingers 7.12502
rthumb 7.77182 -21.7797
lclavicle 1.27222e-014 1.69961e-014
lhumerus 36.1684 -24.5884 70.7213
lradius 68.3183
lwrist -19.729
lhand -7.63374 37.6073
lfingers 7.12502
lthumb 18.2612 66.7701
rfemur -64.2894 -20.539 3.18417
rtibia 99.8301
rfoot -5.68382 -3.14384
rtoes -2.16623
lfemur -62.4907 18.3545 0.934092
ltibia 95.1046
lfoot -6.94455 -17.4684
ltoes -18.9178
248
root 7.12307 9.45675 -18.1298 -27.0773 1.10256 -0.184977
lowerback 35.1922 2.8058 -2.84007
upperback 11.4383 2.69603 1.18126
thorax -5.28936 1.23203 1.78943
lowerneck -23.97 -5.71902 -11.5567
upperneck 15.0643 -5.9959 9.95209
head 9.33005 -2.38656 4.45813
rclavicle 2.67365e-014 1.73937e-015
rhumerus 29.7007 16.8595 -72.2565
rradius 77.2515
rwrist 9.06329
rhand -19.1695 8.64532
rfingers 7.12502
rthumb 7.1415 -21.2142
lclavicle 2.67365e-014 1.73937e-015
lhumerus 36.2487 -24.743 70.7205
lradius 67.6362
lwrist -20.8611
lhand -7.98134 36.9355
lfingers 7.12502
lthumb 17.9268 66.1293
rfemur -64.3918 -20.6785 3.30914
rtibia 99.8149
rfoot -5.62388 -3.07954
rtoes -3.27836
lfemur -62.3602 18.3072 0.97789
ltibia 94.953
lfoot -7.33311 -17.4409
ltoes -20.6825
